<?xml version="1.0" standalone="no"?>
<!DOCTYPE svg PUBLIC "-//W3C//DTD SVG 20010904//EN"
 "http://www.w3.org/TR/2001/REC-SVG-20010904/DTD/svg10.dtd">
<svg version="1.0" xmlns="http://www.w3.org/2000/svg"
 width="1876.000000pt" height="1564.000000pt" viewBox="0 0 1876.000000 1564.000000"
 preserveAspectRatio="xMidYMid meet">
<metadata>
Created by potrace 1.16, written by Peter Selinger 2001-2019
</metadata>
<g transform="translate(0.000000,1564.000000) scale(0.100000,-0.100000)"
fill="#000000" stroke="none">
<path d="M0 14305 l0 -1335 23 0 c24 0 97 66 97 88 0 25 29 11 32 -15 4 -36
35 -43 47 -11 5 13 16 30 25 37 9 7 16 28 16 45 0 33 15 56 36 56 7 0 35 24
63 53 35 36 51 47 51 35 0 -18 24 -23 54 -12 19 7 22 54 5 71 -7 7 -8 19 -4
30 5 10 9 21 9 25 1 3 4 10 9 14 4 4 7 -9 7 -29 0 -20 5 -39 11 -42 10 -7 59
42 59 60 0 12 47 35 72 35 12 0 20 10 24 29 4 17 15 38 25 47 11 9 19 27 19
39 0 27 18 45 47 45 13 0 23 6 23 15 0 21 67 50 83 36 18 -14 30 -2 16 16 -9
10 -4 13 24 13 20 0 39 5 42 10 3 6 19 10 34 10 29 0 51 30 51 71 0 12 9 32
20 46 11 14 20 33 20 43 0 28 33 50 76 50 31 0 41 5 49 22 6 13 19 24 30 26
11 2 30 8 42 14 17 8 26 8 37 -1 10 -9 20 -9 33 -3 47 25 62 72 35 105 -18 21
-5 27 63 27 58 0 63 2 100 40 39 40 85 54 85 26 0 -8 4 -17 9 -20 14 -9 41 4
41 20 0 9 11 14 30 14 17 0 30 5 30 10 0 6 15 10 34 10 18 0 39 7 46 15 18 22
152 85 181 85 30 0 67 34 49 45 -8 5 -8 11 1 21 8 10 33 14 80 14 69 0 69 0
69 28 0 20 7 30 27 40 40 18 43 16 43 -28 0 -41 13 -50 54 -34 18 7 22 69 5
79 -6 4 0 13 16 21 26 13 81 9 91 -7 8 -14 69 -10 100 6 16 8 41 15 56 15 15
0 43 9 63 20 22 12 54 20 85 20 27 0 52 5 55 10 3 6 23 10 43 10 20 0 44 4 52
10 9 5 19 5 27 -1 8 -7 18 -7 32 0 11 6 64 11 119 11 54 0 102 3 106 8 4 4 36
7 69 8 34 1 85 7 112 13 28 7 60 15 72 17 12 2 42 20 68 40 45 34 48 35 66 18
10 -9 19 -22 19 -28 0 -17 -81 -99 -115 -116 -16 -8 -36 -27 -43 -42 -7 -15
-21 -30 -32 -33 -11 -4 -23 -18 -26 -33 -9 -38 -24 -53 -45 -47 -13 4 -22 -2
-33 -22 -16 -31 -123 -143 -136 -143 -17 0 -40 -32 -40 -56 0 -18 -10 -31 -35
-45 -19 -12 -35 -26 -35 -31 0 -11 -9 -22 -97 -118 -33 -36 -67 -78 -75 -95
-8 -16 -23 -46 -33 -67 -9 -20 -37 -55 -60 -77 -24 -23 -56 -66 -71 -96 -14
-30 -32 -55 -40 -55 -18 0 -46 -44 -50 -76 -1 -14 -9 -33 -18 -43 -18 -19 -76
-153 -76 -175 0 -8 -11 -28 -25 -44 -14 -17 -25 -40 -25 -53 0 -13 -9 -43 -19
-65 -10 -23 -22 -56 -26 -73 -4 -18 -18 -59 -31 -92 -14 -33 -31 -106 -39
-162 -8 -56 -21 -145 -30 -197 -21 -136 -21 -564 1 -640 8 -30 21 -82 28 -115
7 -33 18 -78 24 -100 27 -103 32 -124 32 -142 0 -11 9 -32 20 -46 11 -14 20
-33 20 -44 0 -17 27 -105 68 -223 11 -31 31 -73 46 -94 14 -21 26 -43 26 -48
0 -6 9 -21 20 -35 11 -14 20 -36 20 -49 0 -25 37 -94 50 -94 4 0 22 -24 38
-53 16 -29 46 -65 66 -81 20 -15 36 -35 36 -45 0 -19 54 -101 75 -113 6 -4 25
-26 40 -48 16 -23 41 -48 57 -56 15 -8 28 -19 28 -25 0 -6 26 -37 58 -68 69
-70 99 -110 113 -150 6 -17 15 -31 20 -31 16 0 30 -39 20 -58 -9 -14 -11 -12
-17 16 -5 24 -12 32 -28 32 -12 0 -27 5 -34 12 -8 8 -15 8 -27 -2 -21 -17 -19
-37 5 -45 27 -9 25 -18 -10 -53 -35 -36 -38 -69 -9 -106 16 -20 17 -26 6 -26
-9 0 -17 5 -19 12 -2 6 -10 8 -17 4 -9 -6 -9 -11 0 -22 6 -8 9 -28 6 -46 -14
-78 -20 -103 -28 -108 -10 -7 -29 -122 -29 -181 0 -55 -21 -104 -38 -87 -20
20 -39 1 -45 -48 -3 -28 -12 -53 -22 -60 -10 -8 -15 -20 -11 -31 4 -13 -2 -27
-19 -43 -19 -18 -25 -34 -25 -66 0 -24 -4 -46 -10 -49 -13 -8 -13 -68 1 -82 8
-8 8 -13 0 -17 -6 -4 -11 -27 -11 -52 0 -30 -4 -44 -13 -44 -23 0 -58 -46 -64
-84 -3 -21 -14 -43 -24 -49 -11 -7 -19 -23 -19 -39 0 -15 -5 -30 -10 -33 -6
-3 -10 -39 -10 -79 0 -43 -5 -77 -12 -84 -9 -9 -10 -17 -2 -30 7 -12 7 -24 -2
-41 l-12 -23 -7 31 c-6 28 -25 44 -25 21 0 -5 -9 -10 -20 -10 -11 0 -21 -3
-22 -7 -3 -19 -8 -65 -15 -158 -8 -98 -9 -100 -33 -100 -22 0 -25 -5 -28 -38
-2 -23 -8 -37 -17 -37 -15 0 -45 -53 -45 -81 0 -10 -5 -21 -10 -24 -6 -3 -10
-15 -10 -26 0 -17 -17 -56 -30 -69 -13 -13 -30 -80 -30 -118 0 -31 -4 -42 -15
-42 -9 0 -15 9 -15 23 0 12 -7 30 -14 39 -11 15 -17 16 -39 5 -24 -11 -26 -16
-20 -49 4 -25 2 -38 -6 -38 -7 0 -11 -32 -11 -100 0 -89 -2 -101 -20 -112 -14
-9 -20 -24 -20 -49 0 -38 -23 -71 -33 -47 -4 9 -11 7 -25 -9 -11 -13 -32 -27
-47 -33 -15 -6 -29 -19 -32 -30 -3 -11 -9 -20 -14 -20 -5 0 -9 -13 -9 -28 0
-16 -9 -37 -20 -47 -14 -13 -17 -22 -10 -30 7 -8 4 -17 -10 -30 -11 -10 -20
-28 -20 -40 0 -27 -16 -42 -50 -47 -20 -2 -26 -9 -28 -36 -2 -18 2 -40 8 -47
9 -11 7 -17 -9 -27 -12 -7 -21 -20 -21 -29 0 -9 -6 -22 -14 -28 -11 -9 -15 -5
-19 19 -8 37 -19 38 -38 3 -8 -16 -18 -31 -23 -35 -6 -4 -5 -12 3 -21 8 -10 9
-17 1 -22 -5 -3 -10 -17 -10 -30 0 -18 -6 -24 -27 -27 -24 -3 -28 -8 -31 -40
-3 -36 -5 -37 -56 -48 l-54 -11 -6 -49 c-4 -28 -11 -50 -16 -50 -6 0 -10 -17
-10 -38 0 -25 -7 -45 -18 -55 -22 -20 -32 -13 -32 22 0 32 -19 62 -27 44 -2
-7 -11 -13 -19 -13 -8 0 -19 -11 -24 -25 -5 -14 -17 -28 -25 -31 -9 -4 -15
-19 -15 -41 0 -46 -24 -71 -53 -54 -17 11 -21 11 -29 -3 -5 -9 -14 -16 -21
-16 -7 0 -19 -15 -27 -32 -7 -18 -22 -42 -32 -52 -10 -11 -18 -25 -18 -32 0
-17 -27 -37 -34 -25 -4 6 -18 4 -36 -6 -21 -10 -30 -22 -30 -39 0 -17 -5 -24
-20 -24 -14 0 -20 -7 -20 -23 0 -39 -23 -77 -47 -77 -12 0 -25 5 -28 10 -9 14
-38 12 -71 -5 -16 -8 -39 -15 -50 -15 -12 0 -27 -7 -34 -15 -7 -8 -22 -15 -33
-15 -11 0 -28 -7 -38 -16 -22 -20 -109 -32 -109 -15 0 21 -19 11 -32 -16 -11
-23 -21 -29 -56 -31 -23 -2 -42 -7 -42 -13 0 -5 -10 -9 -23 -9 -13 0 -33 -9
-45 -20 -17 -16 -35 -20 -91 -20 l-70 0 -3 -42 -3 -43 -157 -3 -158 -3 0
-1333 0 -1334 43 -7 c31 -5 54 -18 88 -51 39 -38 53 -45 100 -51 30 -3 59 -10
65 -14 6 -5 26 -4 44 1 32 9 112 -3 135 -21 6 -4 46 -10 90 -13 95 -6 125 -14
125 -32 0 -8 7 -14 15 -14 8 0 15 7 15 15 0 21 24 19 45 -5 14 -15 21 -17 32
-9 13 11 116 8 221 -7 26 -4 42 -2 42 4 0 10 61 18 223 28 78 5 89 8 96 26 5
14 10 18 15 10 8 -13 106 -17 106 -4 0 9 49 32 71 32 10 0 19 -6 22 -12 3 -10
7 -10 18 -1 8 6 25 13 39 15 23 3 25 7 22 44 -3 38 0 43 26 56 19 10 36 12 52
6 14 -5 38 -8 55 -6 24 2 31 8 35 32 3 20 16 35 38 48 33 18 34 18 39 -2 7
-25 15 -25 31 0 7 11 21 20 31 20 13 0 20 10 25 30 5 27 26 43 26 20 0 -5 8
-10 18 -10 10 0 23 -5 29 -11 14 -14 65 8 105 46 15 14 34 25 42 25 21 0 87
38 103 59 7 9 13 25 13 37 0 31 20 44 65 44 33 0 47 6 70 30 25 26 27 34 18
49 -10 15 -8 22 11 40 24 23 42 27 48 10 4 -12 38 4 82 38 22 18 26 26 17 37
-9 10 -8 16 4 26 10 8 15 26 13 47 -2 25 3 39 16 49 21 15 36 10 36 -12 0 -8
5 -14 10 -14 6 0 10 5 10 10 0 6 6 10 13 10 8 0 21 8 30 18 13 14 14 21 5 30
-9 9 -7 12 9 12 14 0 26 10 35 30 7 17 21 30 30 30 10 0 18 5 18 10 0 6 6 10
13 10 7 0 28 16 47 35 19 19 39 35 46 35 15 0 28 53 19 80 -8 27 11 50 41 50
12 0 25 4 28 9 3 4 19 11 36 14 25 5 30 11 30 35 0 29 24 87 40 97 5 3 11 1
15 -5 11 -18 45 -11 45 9 0 23 18 37 43 33 18 -3 24 22 8 32 -15 9 12 56 32
56 11 0 20 10 23 29 5 25 12 30 48 35 37 6 44 11 56 42 8 19 22 42 32 51 10 9
18 22 18 30 0 11 4 11 20 1 17 -11 22 -10 30 2 13 21 12 40 -2 40 -7 0 3 16
22 35 22 23 43 35 61 35 29 0 39 15 39 61 0 19 -5 29 -15 29 -9 0 -15 9 -15
25 0 16 6 25 15 25 9 0 15 -9 15 -25 0 -16 6 -25 15 -25 8 0 15 6 15 14 0 8
10 22 22 30 17 12 19 18 9 30 -10 12 -10 21 0 46 8 16 17 30 21 30 5 0 8 8 8
18 0 24 66 88 73 70 5 -16 67 38 67 59 0 7 9 13 20 13 17 0 20 7 20 50 l0 50
60 0 c47 0 60 3 60 15 0 8 -4 15 -10 15 -22 0 -8 26 20 38 18 8 30 21 30 33 0
22 38 27 57 8 9 -9 18 -4 37 17 14 16 26 34 26 40 0 18 45 54 68 54 13 0 22 6
22 16 0 9 9 18 19 21 11 3 22 17 26 32 7 32 45 51 111 55 39 3 53 10 93 50 45
44 49 46 104 46 31 0 57 4 57 10 0 6 23 10 50 10 28 0 50 5 50 10 0 6 15 10
34 10 19 0 38 4 41 10 8 13 52 13 60 -1 5 -7 14 -4 27 8 16 14 19 26 14 55 -4
23 -2 39 5 44 6 4 87 7 180 8 143 1 171 4 185 18 15 15 19 15 52 -4 32 -18 48
-19 156 -14 149 7 136 7 281 -2 128 -7 143 -12 190 -62 l30 -32 250 3 c138 2
272 0 298 -5 41 -8 50 -6 62 10 9 13 10 23 3 31 -8 10 9 13 80 13 71 0 91 3
96 15 3 8 16 15 29 15 14 0 30 7 37 15 14 17 60 21 60 5 0 -13 37 -13 45 0 3
6 14 10 23 10 10 0 22 8 29 18 7 12 34 24 75 32 56 12 124 41 138 59 11 14 51
31 74 31 36 0 106 41 106 61 0 10 5 21 11 24 7 5 2 16 -12 31 l-22 24 26 0
c14 0 29 -5 33 -11 4 -7 18 1 38 20 25 24 47 34 94 41 69 12 112 44 112 85 0
14 5 25 10 25 6 0 10 9 10 20 0 13 7 20 20 20 11 0 20 5 20 10 0 6 11 10 24
10 30 0 65 58 44 72 -10 6 -10 8 0 8 7 0 12 13 12 29 0 24 5 31 28 36 19 4 32
17 44 43 l17 37 0 -32 c1 -37 7 -40 32 -17 15 13 16 20 6 36 -10 17 -8 23 21
48 17 17 32 36 32 44 0 22 24 38 38 24 12 -12 42 -4 42 12 0 5 -10 10 -21 10
-18 0 -19 2 -9 15 9 11 16 13 24 5 15 -15 26 -12 26 7 0 9 10 27 22 40 18 20
20 26 9 46 -10 19 -8 30 16 77 16 30 39 60 51 66 36 18 71 55 74 78 2 13 12
22 26 24 12 2 22 6 22 9 0 2 -10 13 -22 23 -32 26 -14 53 38 60 21 3 52 14 67
24 23 15 27 24 22 46 -4 18 -1 31 10 40 8 7 15 18 15 24 0 7 11 23 25 36 14
13 25 29 25 36 0 15 31 27 51 19 15 -6 33 27 44 81 5 28 12 33 53 44 77 20 75
19 63 33 -8 10 -7 17 2 26 9 9 9 14 -3 21 -12 8 -9 10 11 10 25 0 79 45 79 66
0 6 9 19 20 29 11 10 20 24 20 31 0 7 12 14 27 16 17 2 32 12 40 28 26 55 43
99 43 114 0 9 11 22 25 28 18 8 23 16 19 33 -3 13 1 27 10 34 9 8 16 21 17 30
0 11 3 9 9 -6 12 -31 30 -29 30 2 0 14 -4 25 -10 25 -24 0 -8 29 18 32 23 3
27 8 30 41 2 23 8 37 17 37 25 0 65 23 65 37 0 7 -4 13 -10 13 -16 0 -12 46 5
60 13 10 15 9 15 -9 0 -11 6 -21 13 -21 20 0 67 24 67 34 0 22 55 66 82 66 15
0 28 4 28 9 0 5 8 11 18 13 13 4 22 23 32 72 8 37 17 69 22 72 4 3 8 25 8 48
0 49 17 69 58 69 40 0 72 55 83 141 5 39 15 73 21 78 7 4 31 8 53 8 39 0 41 2
65 55 23 51 51 75 85 75 10 0 15 10 15 30 0 25 4 30 23 30 31 0 77 57 77 95 0
25 33 55 62 55 35 0 78 20 78 36 0 7 15 18 33 25 18 6 40 24 49 39 9 16 26 30
39 32 12 2 25 10 29 18 4 8 12 25 18 37 7 13 12 31 12 41 0 21 18 42 37 42 7
0 13 -6 13 -14 0 -27 18 -27 44 -1 32 32 33 45 4 46 -21 1 -21 2 -3 6 46 10
85 38 85 60 0 21 4 23 59 23 56 0 60 2 73 30 9 21 20 30 36 30 17 0 24 7 29
30 4 20 11 30 24 30 10 0 34 9 53 20 21 11 38 15 41 10 4 -6 14 -10 24 -10 25
0 81 29 81 42 0 6 14 24 31 40 24 24 28 32 18 44 -9 11 -7 14 14 14 14 0 29 5
32 10 3 6 14 10 25 10 10 0 20 7 24 15 7 20 50 36 109 42 38 3 93 25 126 50 2
1 -2 9 -9 18 -11 13 -9 15 13 15 14 0 29 -4 32 -10 3 -5 21 -10 40 -10 19 0
37 5 40 10 3 6 19 10 34 10 32 0 83 23 102 46 10 13 9 16 -9 21 -36 9 -25 29
21 40 36 9 39 12 20 18 -35 11 -27 21 13 17 20 -3 46 0 57 6 24 11 114 24 187
27 73 3 140 16 140 29 0 21 54 36 130 36 73 0 77 1 113 36 30 30 38 33 43 20
7 -17 34 -22 34 -6 0 6 33 10 79 10 44 0 92 5 108 11 15 6 50 12 78 14 192 12
233 18 273 37 23 12 42 25 42 29 0 4 21 9 48 11 42 3 47 6 50 28 7 47 17 50
148 50 71 0 124 4 124 9 0 6 60 12 138 14 387 10 682 22 912 37 96 6 195 9
219 6 41 -6 91 4 133 25 24 12 195 11 203 -1 3 -5 40 -10 81 -10 41 0 74 -4
74 -9 0 -11 184 -20 267 -13 51 4 62 8 65 24 2 10 6 19 11 18 4 0 144 0 312 0
275 0 305 -2 305 -16 0 -24 79 -10 98 17 10 15 17 18 25 10 14 -14 74 -14 82
-1 3 6 30 10 59 10 28 0 56 4 61 9 16 15 279 27 405 18 30 -3 89 0 130 6 41 5
111 11 155 13 107 4 177 14 192 26 7 6 28 7 47 4 19 -4 37 -2 40 3 9 14 113
34 168 32 26 -1 49 3 53 9 3 5 23 17 43 27 20 9 40 22 44 29 4 6 40 15 80 19
40 3 78 10 83 14 13 10 153 31 230 35 115 7 230 25 240 40 8 10 40 15 108 19
98 4 127 15 127 46 0 14 2 14 10 1 7 -12 12 -12 22 -2 6 6 25 12 40 12 15 0
28 5 28 10 0 6 11 10 24 10 14 0 28 5 31 10 3 6 17 10 31 10 14 0 34 5 44 10
13 7 21 7 25 0 3 -5 15 -10 26 -10 18 0 19 11 19 385 l0 385 -27 0 c-38 0
-105 -19 -123 -35 -8 -7 -36 -16 -62 -19 -25 -4 -51 -13 -58 -20 -6 -8 -31
-17 -57 -21 -25 -4 -62 -15 -82 -26 -20 -10 -49 -19 -66 -19 -16 0 -38 -7 -49
-15 -10 -8 -38 -17 -63 -21 -24 -3 -60 -15 -80 -25 -21 -11 -51 -19 -68 -19
-16 0 -57 -9 -89 -20 -33 -11 -77 -20 -100 -20 -35 0 -38 2 -26 14 8 8 41 17
73 20 34 2 66 11 77 21 9 9 39 20 66 24 27 5 63 16 79 25 17 9 38 16 47 16 9
0 36 8 60 18 24 11 60 22 82 25 21 3 46 13 55 20 9 8 36 18 61 22 25 4 52 13
60 20 8 7 37 18 64 24 27 7 58 19 70 27 11 7 30 14 42 14 12 0 27 7 34 15 7 8
28 15 46 15 l34 0 0 860 c0 721 -2 860 -14 860 -7 0 -47 -26 -89 -57 -207
-158 -467 -333 -677 -458 -36 -22 -72 -44 -80 -51 -8 -6 -43 -27 -78 -45 -95
-52 -114 -62 -152 -85 -19 -12 -71 -41 -115 -64 -44 -23 -91 -49 -105 -56 -54
-29 -399 -194 -405 -194 -3 0 -39 -15 -78 -34 -91 -42 -237 -103 -302 -126
-27 -10 -81 -30 -120 -45 -38 -15 -110 -40 -160 -57 -49 -16 -103 -36 -120
-44 -16 -7 -43 -16 -60 -19 -16 -4 -51 -15 -77 -26 -26 -10 -58 -19 -73 -19
-14 0 -38 -6 -53 -14 -15 -8 -50 -17 -77 -21 -27 -5 -67 -16 -90 -26 -22 -10
-52 -19 -66 -19 -14 0 -45 -7 -70 -15 -24 -8 -71 -19 -104 -24 -33 -5 -89 -16
-125 -25 -115 -28 -222 -47 -345 -62 -66 -8 -154 -19 -195 -24 -41 -6 -106 -7
-145 -4 l-70 7 65 13 c36 6 97 15 135 19 39 4 75 12 82 17 6 5 58 13 115 18
57 4 116 15 132 23 16 9 63 19 105 22 42 4 90 13 106 20 17 6 53 15 80 19 28
5 69 16 92 27 23 10 59 19 80 19 21 0 50 6 65 14 15 8 53 20 85 27 32 7 67 18
78 26 11 7 35 13 55 13 20 0 52 8 73 19 20 10 52 22 70 25 18 3 51 15 72 26
22 11 48 20 60 20 11 1 38 9 60 20 22 11 47 19 56 20 9 0 22 6 28 14 7 8 30
18 53 21 22 4 55 15 72 25 17 10 67 30 111 45 44 16 87 34 95 41 8 6 47 24 85
39 39 16 105 45 147 66 43 20 91 40 107 44 16 3 32 13 35 21 3 8 12 14 19 14
12 0 90 37 147 69 8 5 26 14 40 20 14 6 32 15 40 21 8 5 26 15 40 21 31 13 59
29 181 102 53 31 100 57 104 57 5 0 18 9 29 19 12 10 53 35 91 56 39 20 83 47
99 60 15 14 31 25 35 25 10 0 112 65 141 90 36 30 89 66 130 88 20 10 62 38
94 62 32 25 69 52 81 60 13 8 40 28 61 45 177 137 220 170 225 178 9 12 59 37
75 37 12 0 14 132 14 850 l0 850 -2831 0 c-2204 0 -2830 -3 -2827 -12 5 -13
71 -51 133 -75 22 -9 59 -29 82 -44 22 -15 52 -30 65 -34 12 -4 30 -13 38 -20
47 -39 652 -323 766 -360 23 -7 50 -18 60 -23 23 -13 184 -62 202 -62 7 0 29
-8 50 -19 20 -10 59 -22 87 -26 27 -4 61 -13 75 -20 14 -7 53 -15 87 -19 35
-4 79 -14 99 -22 20 -8 72 -19 117 -24 44 -5 110 -16 146 -24 36 -9 91 -18
122 -21 31 -3 65 -13 75 -20 17 -13 4 -14 -102 -15 -83 0 -135 5 -164 15 -24
8 -82 18 -129 21 -47 3 -106 12 -131 20 -25 7 -76 16 -115 20 -38 4 -76 11
-83 17 -7 6 -41 16 -75 23 -109 23 -231 56 -264 70 -17 8 -39 14 -48 14 -9 0
-28 9 -42 20 -14 11 -37 20 -52 20 -14 1 -44 9 -66 20 -22 11 -47 19 -55 20
-8 0 -30 9 -48 20 -18 11 -37 20 -43 20 -26 0 -550 261 -556 277 -3 6 -19 15
-36 19 -18 3 -43 14 -57 23 -51 33 -66 41 -90 53 -78 35 -118 56 -143 72 -15
10 -42 22 -60 25 -23 5 -33 13 -35 29 l-3 22 -2211 0 -2210 0 7 -132 c4 -73
13 -151 21 -173 7 -22 16 -60 19 -85 21 -144 100 -342 192 -477 74 -109 270
-293 314 -293 8 0 30 -11 49 -25 19 -14 41 -25 49 -25 9 0 39 -11 66 -25 28
-13 61 -25 75 -25 14 0 36 -7 48 -16 13 -9 55 -20 94 -25 51 -6 78 -15 100
-34 l29 -25 -96 6 c-138 8 -288 38 -345 68 -14 8 -41 17 -60 21 -19 4 -46 16
-59 26 -13 11 -32 19 -41 19 -10 0 -23 6 -29 14 -7 8 -23 17 -37 20 -45 12
-283 215 -299 255 -5 15 -28 51 -51 81 -23 31 -45 66 -49 80 -4 14 -22 54 -41
90 -36 69 -55 130 -79 250 -9 41 -20 89 -27 105 -6 17 -13 96 -15 178 l-5 147
-4159 0 -4159 0 0 -1335z m9420 -1604 c-8 -5 -42 -12 -75 -16 -33 -4 -80 -14
-105 -22 -25 -9 -70 -22 -100 -29 -103 -24 -203 -54 -214 -63 -6 -5 -31 -14
-56 -21 -57 -14 -183 -64 -285 -111 -85 -39 -171 -80 -185 -88 -8 -5 -49 -28
-90 -51 -41 -23 -91 -52 -110 -65 -19 -12 -66 -42 -105 -66 -38 -24 -102 -69
-142 -99 -39 -30 -88 -66 -108 -80 -20 -14 -44 -32 -53 -41 -9 -8 -28 -22 -42
-31 -22 -14 -132 -103 -200 -161 -14 -12 -54 -46 -90 -75 -36 -29 -94 -79
-129 -110 -155 -137 -181 -160 -241 -212 -89 -78 -149 -131 -179 -160 -14 -13
-82 -73 -151 -134 -69 -60 -132 -115 -140 -122 -82 -73 -326 -266 -444 -351
-17 -13 -45 -33 -62 -45 -81 -60 -310 -205 -405 -257 -38 -22 -150 -78 -169
-85 -8 -3 -22 -10 -30 -15 -8 -5 -42 -21 -75 -36 -33 -15 -77 -36 -98 -46 -21
-11 -44 -19 -53 -19 -8 0 -31 -8 -52 -19 -20 -10 -57 -22 -82 -26 -25 -4 -54
-14 -65 -21 -11 -8 -29 -14 -40 -14 -12 0 -42 -7 -67 -15 -24 -9 -83 -22 -129
-29 -46 -8 -102 -19 -124 -25 -44 -11 -222 -13 -270 -2 -26 6 -27 8 -10 13 11
4 65 10 120 14 55 3 111 12 125 19 14 7 50 16 80 20 30 4 71 15 90 24 19 10
57 21 85 25 27 5 66 16 87 27 20 10 46 19 57 19 11 0 42 10 68 22 27 11 62 27
78 34 62 26 301 144 335 165 19 13 60 36 90 52 30 16 75 45 100 64 61 46 179
123 189 123 4 0 16 9 26 20 10 11 23 20 28 20 6 0 17 7 26 15 41 38 75 65 81
65 4 0 20 12 37 28 76 70 136 121 196 165 35 26 91 73 123 103 33 30 71 61 86
69 15 8 29 24 33 35 4 13 15 20 30 20 15 0 31 10 40 24 9 13 57 59 106 103 50
43 128 114 174 158 115 112 143 135 160 135 8 0 15 7 15 15 0 9 8 18 18 22 9
3 33 22 52 40 58 56 168 150 259 221 18 15 41 34 50 42 9 9 40 31 68 50 29 19
53 41 53 48 0 6 8 12 18 12 11 0 37 17 59 38 42 39 148 118 192 141 14 8 31
22 38 31 7 10 27 23 45 30 18 7 47 24 65 37 17 12 36 23 41 23 5 0 14 6 20 13
6 7 60 37 119 67 59 30 114 60 121 67 7 7 19 13 25 13 7 0 28 8 47 19 19 10
49 21 67 25 17 4 37 14 44 22 6 8 16 14 21 14 5 0 28 9 51 19 23 11 60 22 82
26 22 4 47 13 55 20 8 8 33 16 55 20 22 4 50 13 62 21 20 13 91 31 208 55 28
6 77 16 110 24 67 14 289 20 265 6z m8340 -966 c-8 -9 -30 -15 -57 -15 -39 0
-44 2 -33 15 8 9 30 15 57 15 39 0 44 -2 33 -15z m-137 -36 c-15 -15 -152 -26
-138 -11 12 12 44 19 105 21 32 1 41 -2 33 -10z m-218 -49 c-3 -5 -25 -10 -48
-10 -31 0 -38 3 -27 10 20 13 83 13 75 0z m-195 -40 c0 -5 -21 -10 -47 -9 -39
1 -43 2 -23 9 36 12 70 12 70 0z m-5450 -500 c0 -5 -21 -10 -46 -10 -27 0 -43
4 -39 10 3 6 24 10 46 10 21 0 39 -4 39 -10z m-155 -29 c17 -7 14 -10 -20 -19
-22 -5 -57 -13 -77 -16 -20 -4 -50 -13 -65 -21 -15 -8 -39 -15 -53 -15 -14 0
-38 -7 -55 -16 -16 -9 -52 -20 -79 -25 -27 -4 -56 -15 -65 -23 -9 -8 -34 -17
-56 -21 -22 -4 -50 -13 -62 -21 -12 -8 -30 -14 -40 -14 -10 0 -40 -11 -68 -25
-27 -13 -56 -25 -64 -25 -7 0 -28 -9 -45 -19 -17 -10 -45 -22 -63 -26 -17 -3
-37 -12 -43 -20 -6 -7 -26 -16 -44 -19 -19 -4 -39 -13 -46 -21 -6 -7 -25 -17
-41 -20 -16 -4 -32 -11 -35 -17 -3 -5 -25 -18 -48 -29 -22 -10 -70 -35 -106
-55 -36 -20 -80 -45 -99 -55 -18 -10 -41 -24 -50 -32 -9 -7 -31 -19 -48 -27
-18 -7 -33 -16 -33 -20 0 -4 -13 -13 -30 -20 -16 -7 -30 -16 -30 -19 0 -4 -15
-15 -32 -24 -18 -9 -53 -33 -78 -52 -25 -19 -59 -45 -76 -57 -189 -136 -467
-397 -663 -622 -47 -55 -95 -109 -106 -121 -11 -12 -38 -43 -60 -69 -22 -27
-51 -60 -65 -76 -14 -15 -41 -46 -60 -69 -19 -24 -51 -61 -71 -84 -115 -135
-306 -366 -323 -392 -12 -17 -30 -40 -41 -52 -11 -12 -38 -45 -60 -74 -22 -28
-55 -69 -73 -89 -18 -21 -43 -52 -55 -69 -12 -17 -69 -92 -127 -166 -58 -74
-114 -148 -125 -163 -11 -15 -54 -68 -95 -118 -41 -50 -113 -142 -160 -204
-47 -62 -103 -134 -125 -160 -22 -26 -96 -116 -164 -201 -68 -85 -129 -158
-135 -164 -6 -5 -28 -30 -50 -55 -50 -58 -278 -291 -361 -369 -172 -160 -469
-344 -595 -368 -19 -3 -38 -10 -41 -15 -9 -14 -74 -21 -115 -13 -28 5 -34 9
-23 16 8 5 27 9 43 9 15 0 49 11 75 25 25 14 62 31 81 40 45 19 151 77 189
104 16 12 34 21 40 21 6 0 11 4 11 8 0 8 87 77 122 97 78 46 433 412 605 625
138 171 207 255 213 260 4 3 22 26 41 51 68 92 127 169 299 386 96 122 200
254 230 294 30 40 78 100 105 134 28 34 61 77 75 95 14 19 65 81 113 139 49
57 96 116 105 130 9 14 36 49 61 77 68 74 140 160 203 240 31 39 92 109 135
155 43 46 91 100 107 119 135 169 511 541 626 620 19 13 44 32 55 42 21 18 91
70 135 100 14 10 43 31 65 47 22 16 61 41 88 55 26 15 79 47 117 71 67 43 347
189 441 229 24 11 64 28 89 39 25 10 63 27 85 38 22 10 47 19 55 19 8 0 28 7
44 15 40 21 161 61 211 71 22 4 49 13 60 20 11 8 31 14 45 14 14 0 41 8 60 18
19 11 62 22 95 26 32 4 62 12 66 18 4 7 29 15 56 19 66 9 75 9 98 0z m-95
-766 c0 -26 -4 -35 -17 -35 -13 0 -14 3 -5 12 7 7 12 22 12 35 0 13 2 23 5 23
3 0 5 -16 5 -35z m-8263 -111 c-3 -3 -12 -4 -19 -1 -8 3 -5 6 6 6 11 1 17 -2
13 -5z m-1497 -3218 c0 -2 -7 -9 -15 -16 -12 -10 -15 -10 -15 4 0 9 7 16 15
16 8 0 15 -2 15 -4z m2569 -375 c10 -6 1 -11 -29 -16 -23 -4 -51 -16 -61 -26
-10 -10 -28 -19 -40 -19 -11 0 -37 -9 -57 -20 -20 -11 -66 -34 -102 -51 -36
-17 -85 -44 -110 -60 -25 -16 -52 -32 -60 -36 -9 -5 -47 -30 -85 -58 -197
-144 -437 -382 -677 -672 -40 -49 -317 -385 -397 -482 -20 -25 -70 -83 -111
-130 -42 -47 -86 -99 -99 -116 -12 -16 -44 -52 -70 -80 -25 -27 -79 -85 -119
-127 -153 -163 -412 -388 -544 -473 -8 -5 -49 -32 -89 -60 -85 -57 -94 -62
-233 -132 -57 -29 -108 -53 -115 -53 -7 0 -29 -9 -49 -19 -45 -23 -90 -39
-158 -56 -28 -7 -59 -17 -70 -22 -29 -15 -107 -23 -124 -13 -17 11 -7 15 54
24 21 3 46 12 55 20 9 8 30 18 46 22 17 4 50 18 74 31 24 12 52 23 61 23 10 0
23 6 29 14 7 8 27 18 44 22 18 3 43 15 56 25 13 11 29 19 36 19 7 0 24 9 38
20 14 11 32 20 39 20 8 0 26 9 39 21 13 11 56 41 94 65 39 24 79 51 90 59 47
36 157 124 225 179 86 70 296 277 395 390 39 44 88 100 111 125 22 25 74 87
115 136 215 258 287 345 314 380 17 21 61 75 98 119 38 45 80 95 94 111 80 95
145 165 298 319 94 95 185 183 203 197 18 13 66 51 107 84 40 33 99 74 131 90
33 17 61 33 64 37 9 12 183 98 199 98 7 0 28 8 45 19 17 10 57 21 90 25 32 4
68 13 79 21 24 17 55 19 76 6z m-12 -823 c-3 -8 -6 -5 -6 6 -1 11 2 17 5 13 3
-3 4 -12 1 -19z m-3482 -1928 c-3 -5 -13 -10 -21 -10 -8 0 -14 5 -14 10 0 6 9
10 21 10 11 0 17 -4 14 -10z"/>
<path d="M110 12984 c0 -10 7 -14 22 -12 32 5 35 28 4 28 -17 0 -26 -5 -26
-16z"/>
<path d="M0 12905 c0 -10 10 -15 30 -15 32 0 40 14 14 24 -27 10 -44 7 -44 -9z"/>
<path d="M13090 10685 c0 -8 5 -15 10 -15 6 0 10 7 10 15 0 8 -4 15 -10 15 -5
0 -10 -7 -10 -15z"/>
<path d="M3011 10197 c-13 -16 -5 -27 20 -27 24 0 35 20 18 31 -19 12 -25 11
-38 -4z"/>
<path d="M10710 9854 c0 -9 7 -14 17 -12 25 5 28 28 4 28 -12 0 -21 -6 -21
-16z"/>
<path d="M18567 9302 c-23 -25 -21 -32 7 -32 31 0 43 18 24 36 -12 13 -17 12
-31 -4z"/>
<path d="M18398 9247 c-7 -7 -26 -18 -43 -26 -27 -12 -28 -14 -10 -21 23 -8
55 -2 55 12 0 5 14 14 30 19 17 6 30 15 30 20 0 14 -47 11 -62 -4z"/>
<path d="M2763 9205 c-17 -18 -16 -35 2 -59 20 -27 37 -9 33 34 -3 37 -17 46
-35 25z"/>
<path d="M18080 9150 c0 -5 5 -10 10 -10 6 0 10 5 10 10 0 6 -4 10 -10 10 -5
0 -10 -4 -10 -10z"/>
<path d="M18110 9140 c0 -15 7 -20 29 -20 40 0 49 18 16 30 -38 14 -45 13 -45
-10z"/>
<path d="M18595 9109 c-60 -23 -135 -47 -165 -55 -30 -8 -67 -21 -82 -29 -14
-8 -34 -15 -43 -15 -10 0 -54 -12 -99 -26 -44 -14 -103 -32 -131 -39 -27 -8
-88 -25 -135 -38 -217 -62 -484 -129 -645 -162 -44 -9 -109 -23 -145 -31 -36
-8 -114 -24 -175 -35 -60 -10 -125 -24 -145 -29 -19 -5 -78 -14 -130 -20 -52
-6 -113 -15 -135 -20 -63 -14 -419 -58 -530 -65 -55 -3 -145 -14 -200 -23 -85
-14 -192 -16 -710 -16 -419 0 -641 3 -710 12 -55 6 -156 17 -225 22 -142 12
-251 23 -495 51 -93 11 -219 24 -280 29 -60 6 -182 18 -270 27 -196 20 -578
23 -690 6 -44 -7 -125 -17 -180 -23 -55 -5 -154 -23 -220 -41 -66 -17 -138
-35 -160 -40 -22 -5 -53 -16 -70 -24 -16 -7 -50 -20 -75 -28 -116 -38 -365
-150 -410 -183 -8 -7 -40 -25 -70 -41 -50 -27 -134 -78 -202 -125 -15 -10 -30
-18 -34 -18 -4 0 -17 -10 -29 -22 -13 -13 -48 -45 -79 -72 -49 -43 -176 -196
-176 -213 0 -4 -6 -14 -14 -22 -33 -39 -123 -261 -157 -391 -35 -130 -65 -317
-80 -495 -12 -142 -16 -623 -11 -1369 3 -512 -15 -775 -73 -1021 -14 -60 -29
-126 -34 -145 -20 -88 -99 -260 -167 -361 -69 -103 -199 -230 -279 -272 -119
-63 -211 -99 -342 -133 -105 -28 -115 -28 -378 -29 -242 0 -283 2 -390 23 -66
13 -133 28 -150 34 -16 5 -52 16 -80 23 -27 8 -79 25 -115 38 -36 14 -83 31
-105 40 -103 38 -314 149 -323 170 -2 4 -12 7 -22 7 -9 0 -24 7 -31 17 -8 9
-27 22 -44 30 -16 8 -48 27 -70 44 -22 16 -50 34 -63 39 -12 5 -22 14 -22 19
0 5 -13 14 -30 21 -16 7 -30 17 -30 22 0 5 -13 14 -28 21 -27 12 -41 22 -83
59 -10 10 -24 18 -29 18 -6 0 -20 11 -32 25 -12 14 -28 25 -35 25 -8 0 -16 7
-19 15 -5 13 -30 31 -134 102 -14 9 -43 31 -65 48 -21 16 -47 35 -56 40 -10 6
-38 25 -64 43 -25 17 -48 32 -51 32 -3 0 -32 18 -65 40 -34 22 -91 54 -127 72
-37 17 -74 36 -82 43 -16 11 -88 40 -175 70 -27 9 -79 21 -115 27 -90 14 -421
4 -485 -15 -27 -9 -70 -18 -95 -22 -41 -6 -149 -40 -270 -84 -45 -16 -122 -56
-171 -89 -78 -51 -149 -104 -149 -110 0 -4 -18 -26 -40 -49 -21 -24 -56 -78
-77 -120 -34 -72 -38 -86 -41 -180 -3 -85 0 -116 19 -180 29 -99 112 -264 156
-310 18 -20 33 -39 33 -42 0 -3 18 -19 40 -35 22 -17 40 -36 40 -43 0 -7 6
-13 13 -13 8 0 24 -11 37 -25 13 -14 29 -25 36 -25 17 0 87 -47 97 -66 4 -8
22 -14 38 -14 22 0 32 -6 36 -20 3 -11 13 -20 22 -20 9 0 75 -26 146 -59 72
-32 146 -62 165 -66 19 -4 55 -18 80 -31 25 -13 50 -24 56 -24 7 0 25 -7 40
-15 16 -8 38 -15 49 -15 11 0 29 -6 40 -14 11 -7 44 -19 74 -25 66 -14 86 -28
70 -47 -8 -10 -8 -14 0 -14 6 0 11 4 11 9 0 14 104 0 123 -17 10 -9 39 -17 65
-19 33 -1 52 -8 64 -23 10 -13 28 -20 49 -20 19 0 45 -10 65 -25 18 -14 41
-25 52 -25 11 0 25 -7 32 -15 7 -8 24 -15 39 -15 16 0 40 -13 60 -31 33 -30
34 -31 28 -94 -11 -118 -98 -240 -246 -344 -52 -37 -240 -130 -286 -142 -22
-6 -62 -19 -90 -29 -112 -42 -178 -60 -330 -90 -33 -6 -93 -20 -132 -31 -40
-10 -90 -19 -110 -19 -21 -1 -74 -7 -118 -16 -44 -8 -120 -19 -170 -25 -49 -5
-148 -16 -220 -25 -71 -8 -200 -19 -285 -25 -85 -5 -218 -14 -295 -19 -303
-20 -917 -32 -1975 -41 -608 -5 -1154 -13 -1215 -18 -186 -15 -383 -47 -590
-96 -38 -9 -91 -20 -116 -25 -54 -10 -192 -51 -309 -92 -47 -16 -101 -33 -120
-38 -19 -5 -53 -18 -75 -30 -21 -11 -44 -20 -51 -20 -11 0 -70 -23 -139 -55
-16 -8 -57 -26 -90 -40 -33 -14 -77 -34 -97 -45 -20 -11 -44 -20 -52 -20 -14
0 -16 -77 -16 -730 l0 -730 9380 0 9380 0 0 4575 0 4575 -27 -1 c-16 0 -77
-18 -138 -40z m-5304 -5216 c34 -71 74 -143 88 -161 47 -61 309 -316 376 -367
37 -27 94 -76 128 -107 34 -32 65 -58 69 -58 10 0 114 -105 163 -166 61 -73
88 -116 147 -229 52 -99 91 -256 70 -277 -9 -9 -16 -1 -27 28 -25 63 -57 125
-97 184 -53 78 -230 262 -305 317 -35 25 -63 50 -63 55 0 5 -10 12 -22 17 -13
5 -72 55 -133 110 -172 159 -208 194 -227 221 -10 14 -40 56 -68 95 -27 38
-50 75 -50 81 0 6 -8 22 -18 35 -16 21 -29 59 -88 248 -13 43 -19 101 -10 101
3 0 33 -57 67 -127z"/>
<path d="M17872 9069 c2 -6 7 -10 11 -10 4 1 21 1 37 1 17 0 30 5 30 10 0 6
-18 10 -41 10 -25 0 -39 -4 -37 -11z"/>
<path d="M17765 9030 c-4 -6 7 -10 25 -10 18 0 29 4 25 10 -3 6 -15 10 -25 10
-10 0 -22 -4 -25 -10z"/>
<path d="M17658 8983 c6 -2 18 -2 25 0 6 3 1 5 -13 5 -14 0 -19 -2 -12 -5z"/>
<path d="M17460 8957 l-25 -11 29 -4 c35 -4 76 5 76 18 0 13 -49 12 -80 -3z"/>
<path d="M17230 8911 c-98 -9 -49 -18 70 -12 68 2 96 7 80 12 -28 8 -57 8
-150 0z"/>
<path d="M12010 8744 c0 -10 7 -14 22 -12 32 5 35 28 4 28 -17 0 -26 -5 -26
-16z"/>
<path d="M11420 8740 c0 -5 9 -10 20 -10 11 0 20 5 20 10 0 6 -9 10 -20 10
-11 0 -20 -4 -20 -10z"/>
<path d="M13418 8743 c17 -2 47 -2 65 0 17 2 3 4 -33 4 -36 0 -50 -2 -32 -4z"/>
<path d="M14370 8700 c0 -5 5 -10 10 -10 6 0 10 5 10 10 0 6 -4 10 -10 10 -5
0 -10 -4 -10 -10z"/>
<path d="M15672 8664 c3 -16 11 -19 58 -16 87 6 84 20 -5 29 -52 6 -57 4 -53
-13z"/>
<path d="M11510 8581 c0 -16 19 -23 43 -15 21 7 21 7 2 15 -28 11 -45 11 -45
0z"/>
<path d="M11395 8530 c-4 -6 8 -10 30 -10 22 0 34 4 30 10 -3 6 -17 10 -30 10
-13 0 -27 -4 -30 -10z"/>
<path d="M11335 8490 c-3 -5 1 -10 9 -10 9 0 16 5 16 10 0 6 -4 10 -9 10 -6 0
-13 -4 -16 -10z"/>
<path d="M11050 8391 c0 -5 7 -14 15 -21 18 -15 42 1 31 19 -8 13 -46 15 -46
2z"/>
<path d="M10765 8350 c3 -5 8 -10 11 -10 2 0 4 5 4 10 0 6 -5 10 -11 10 -5 0
-7 -4 -4 -10z"/>
<path d="M10907 8354 c-8 -8 1 -24 14 -24 5 0 9 7 9 15 0 15 -12 20 -23 9z"/>
<path d="M11013 8333 c-20 -7 -15 -23 7 -23 11 0 20 4 20 9 0 13 -12 19 -27
14z"/>
<path d="M10870 8290 c0 -5 5 -10 10 -10 6 0 10 5 10 10 0 6 -4 10 -10 10 -5
0 -10 -4 -10 -10z"/>
<path d="M10335 7791 c-6 -11 9 -23 19 -14 9 9 7 23 -3 23 -6 0 -12 -4 -16 -9z"/>
<path d="M10390 7451 c0 -5 7 -14 15 -21 8 -7 15 -19 15 -28 0 -8 3 -13 6 -9
11 11 -7 67 -22 67 -8 0 -14 -4 -14 -9z"/>
<path d="M1732 7125 c2 -14 8 -26 13 -26 6 0 11 12 13 26 2 18 -1 25 -13 25
-12 0 -15 -7 -13 -25z"/>
<path d="M10364 7137 c-7 -20 -2 -47 11 -50 14 -3 19 43 6 56 -7 7 -12 6 -17
-6z"/>
<path d="M7837 6594 c-8 -8 1 -24 14 -24 5 0 9 7 9 15 0 15 -12 20 -23 9z"/>
<path d="M7517 6353 c-13 -12 -7 -43 8 -43 9 0 15 9 15 25 0 24 -10 32 -23 18z"/>
<path d="M7354 6229 c-10 -17 11 -31 42 -27 18 2 30 10 32 21 3 13 -4 17 -32
17 -19 0 -38 -5 -42 -11z"/>
<path d="M10341 6005 l1 -60 10 48 c8 35 7 52 -1 60 -8 8 -11 -5 -10 -48z"/>
<path d="M6907 6033 c-4 -3 -48 -9 -99 -12 -60 -4 -93 -10 -96 -18 -3 -10 25
-13 116 -13 122 0 132 3 132 41 0 10 -43 12 -53 2z"/>
<path d="M6890 5066 c0 -8 61 -12 66 -4 3 4 -11 8 -30 8 -20 0 -36 -2 -36 -4z"/>
<path d="M6760 5037 c0 -20 38 -33 53 -18 13 13 9 18 -26 26 -21 6 -27 4 -27
-8z"/>
<path d="M6300 4950 c-11 -7 -1 -9 35 -9 40 1 45 3 25 9 -35 11 -43 11 -60 0z"/>
<path d="M6530 4940 c0 -5 9 -10 21 -10 11 0 17 5 14 10 -3 6 -13 10 -21 10
-8 0 -14 -4 -14 -10z"/>
<path d="M6765 4940 c-10 -16 16 -43 28 -31 11 11 2 41 -12 41 -5 0 -13 -5
-16 -10z"/>
<path d="M5990 4910 c0 -5 18 -10 40 -10 22 0 40 5 40 10 0 6 -18 10 -40 10
-22 0 -40 -4 -40 -10z"/>
<path d="M6565 4911 c3 -6 22 -11 42 -11 44 0 41 5 -10 14 -27 5 -37 4 -32 -3z"/>
<path d="M6717 4885 c-7 -18 12 -29 40 -22 17 4 16 5 -2 12 -11 5 -23 13 -26
18 -3 5 -9 1 -12 -8z"/>
<path d="M6905 4870 c-3 -5 1 -10 9 -10 9 0 16 5 16 10 0 6 -4 10 -9 10 -6 0
-13 -4 -16 -10z"/>
<path d="M6811 4839 c-28 -11 -20 -24 22 -35 26 -6 28 -4 25 16 -4 28 -15 32
-47 19z"/>
<path d="M6935 4761 c-5 -9 38 -31 60 -31 8 0 15 5 15 10 0 6 -1 10 -3 10 -1
0 -17 4 -34 9 -18 5 -35 6 -38 2z"/>
<path d="M5168 4733 c7 -3 16 -2 19 1 4 3 -2 6 -13 5 -11 0 -14 -3 -6 -6z"/>
<path d="M7016 4705 c4 -8 10 -12 15 -9 14 8 10 24 -6 24 -9 0 -12 -6 -9 -15z"/>
<path d="M7244 4695 c-18 -14 -18 -14 9 -15 17 0 27 5 27 15 0 19 -11 19 -36
0z"/>
<path d="M7092 4659 c2 -6 8 -10 13 -10 5 0 11 4 13 10 2 6 -4 11 -13 11 -9 0
-15 -5 -13 -11z"/>
<path d="M7140 4610 c0 -5 5 -10 10 -10 6 0 10 5 10 10 0 6 -4 10 -10 10 -5 0
-10 -4 -10 -10z"/>
<path d="M7170 4610 c0 -5 5 -10 10 -10 6 0 10 5 10 10 0 6 -4 10 -10 10 -5 0
-10 -4 -10 -10z"/>
<path d="M10216 4604 c-11 -29 -6 -54 15 -75 17 -17 23 -19 30 -8 13 20 10 61
-5 82 -16 21 -32 22 -40 1z"/>
<path d="M7210 4575 c-10 -12 -9 -15 5 -15 10 0 27 -7 37 -17 17 -15 18 -15
18 5 0 12 -9 26 -19 32 -25 13 -26 13 -41 -5z"/>
<path d="M5213 4548 c-24 -11 -30 -32 -13 -43 16 -10 50 14 50 35 0 22 -5 23
-37 8z"/>
<path d="M7312 4499 c2 -7 10 -15 17 -17 8 -3 12 1 9 9 -2 7 -10 15 -17 17 -8
3 -12 -1 -9 -9z"/>
<path d="M5160 4461 c0 -5 -7 -16 -15 -25 -12 -12 -14 -23 -6 -48 l9 -33 1 38
c1 26 5 37 16 37 8 0 15 9 15 20 0 11 -4 20 -10 20 -5 0 -10 -4 -10 -9z"/>
<path d="M10060 4416 c0 -22 3 -27 11 -19 8 8 8 16 0 30 -9 16 -10 14 -11 -11z"/>
<path d="M7770 4411 c0 -15 16 -22 35 -15 13 5 14 8 3 15 -18 12 -38 11 -38 0z"/>
<path d="M10202 4393 c5 -25 28 -28 28 -4 0 12 -6 21 -16 21 -9 0 -14 -7 -12
-17z"/>
<path d="M7502 4368 c3 -7 13 -15 22 -16 12 -3 17 1 14 10 -3 7 -13 15 -22 16
-12 3 -17 -1 -14 -10z"/>
<path d="M10114 4346 c-8 -22 3 -33 18 -18 9 9 9 15 0 24 -9 9 -13 7 -18 -6z"/>
<path d="M7610 4292 c0 -5 9 -17 20 -27 16 -14 23 -16 32 -7 8 8 8 15 3 21
-15 14 -55 23 -55 13z"/>
<path d="M10170 4280 c0 -11 5 -20 10 -20 6 0 10 9 10 20 0 11 -4 20 -10 20
-5 0 -10 -9 -10 -20z"/>
<path d="M10113 4205 c-3 -9 -3 -19 1 -22 7 -7 36 16 36 28 0 15 -30 10 -37
-6z"/>
<path d="M7770 4195 c0 -10 7 -15 18 -13 21 4 19 22 -2 26 -10 2 -16 -3 -16
-13z"/>
<path d="M10062 4148 c-13 -13 -17 -68 -4 -68 6 0 22 27 39 68 7 15 -19 16
-35 0z"/>
<path d="M5085 4110 c-3 -5 1 -10 9 -10 9 0 16 5 16 10 0 6 -4 10 -9 10 -6 0
-13 -4 -16 -10z"/>
<path d="M8078 4063 c6 -2 18 -2 25 0 6 3 1 5 -13 5 -14 0 -19 -2 -12 -5z"/>
<path d="M5142 4035 c0 -16 2 -22 5 -12 2 9 2 23 0 30 -3 6 -5 -1 -5 -18z"/>
<path d="M9800 3997 c0 -30 6 -36 31 -30 25 7 25 29 0 43 -28 14 -31 13 -31
-13z"/>
<path d="M9965 3999 c-10 -15 3 -25 16 -12 7 7 7 13 1 17 -6 3 -14 1 -17 -5z"/>
<path d="M5102 3980 c0 -14 2 -19 5 -12 2 6 2 18 0 25 -3 6 -5 1 -5 -13z"/>
<path d="M9890 3945 c0 -9 5 -15 11 -13 6 2 11 8 11 13 0 5 -5 11 -11 13 -6 2
-11 -4 -11 -13z"/>
<path d="M8298 3943 c7 -3 16 -2 19 1 4 3 -2 6 -13 5 -11 0 -14 -3 -6 -6z"/>
<path d="M8460 3940 c0 -5 12 -10 28 -9 24 0 25 1 7 9 -27 12 -35 12 -35 0z"/>
<path d="M8205 3930 c-3 -5 3 -10 14 -10 11 0 23 5 26 10 3 6 -3 10 -14 10
-11 0 -23 -4 -26 -10z"/>
<path d="M8310 3890 c0 -13 7 -20 19 -20 10 0 21 -7 25 -15 6 -17 46 -21 46
-5 0 6 -4 10 -10 10 -5 0 -10 7 -10 15 0 11 11 15 39 15 22 0 43 5 46 10 4 6
-23 10 -74 10 -74 0 -81 -2 -81 -20z"/>
<path d="M9795 3880 c-3 -6 1 -13 10 -16 19 -8 30 0 20 15 -8 14 -22 14 -30 1z"/>
<path d="M5043 3864 c-7 -18 11 -39 26 -30 17 11 13 46 -4 46 -9 0 -18 -7 -22
-16z"/>
<path d="M5135 3820 c-8 -26 -3 -33 19 -24 19 7 18 35 -1 41 -6 2 -14 -5 -18
-17z"/>
<path d="M9707 3834 c-10 -11 3 -24 22 -24 10 0 24 7 31 15 11 13 8 15 -17 15
-16 0 -33 -3 -36 -6z"/>
<path d="M8565 3780 c41 -20 101 -27 91 -11 -5 8 -21 12 -106 27 -17 3 -13 -2
15 -16z"/>
<path d="M5246 3781 c-8 -12 3 -41 15 -41 5 0 9 11 9 25 0 25 -14 34 -24 16z"/>
<path d="M8788 3738 c9 -9 15 -9 24 0 9 9 7 12 -12 12 -19 0 -21 -3 -12 -12z"/>
<path d="M9288 3733 c6 -2 18 -2 25 0 6 3 1 5 -13 5 -14 0 -19 -2 -12 -5z"/>
<path d="M2232 3588 c6 -18 28 -21 28 -4 0 9 -7 16 -16 16 -9 0 -14 -5 -12
-12z"/>
<path d="M5438 3523 c7 -3 16 -2 19 1 4 3 -2 6 -13 5 -11 0 -14 -3 -6 -6z"/>
<path d="M5756 3304 c-10 -27 -7 -34 18 -34 29 0 39 12 30 34 -8 21 -40 21
-48 0z"/>
<path d="M6065 3160 c-9 -15 3 -30 24 -30 25 0 33 11 20 27 -13 15 -35 17 -44
3z"/>
<path d="M6743 2943 c-32 -12 4 -38 38 -28 27 9 24 35 -3 34 -13 0 -29 -3 -35
-6z"/>
<path d="M6920 2730 c0 -13 5 -18 15 -14 8 4 15 12 15 20 0 8 -7 14 -15 14 -8
0 -15 -9 -15 -20z"/>
<path d="M6872 2701 c-30 -8 -33 -25 -4 -29 12 -2 22 -10 22 -18 0 -8 7 -14
15 -14 18 0 18 0 3 37 -11 23 -18 28 -36 24z"/>
<path d="M6850 2599 c0 -5 5 -7 10 -4 6 3 10 8 10 11 0 2 -4 4 -10 4 -5 0 -10
-5 -10 -11z"/>
<path d="M6815 2579 c-4 -6 -5 -13 -2 -16 7 -7 27 6 27 18 0 12 -17 12 -25 -2z"/>
<path d="M6715 2490 c3 -5 8 -10 11 -10 2 0 4 5 4 10 0 6 -5 10 -11 10 -5 0
-7 -4 -4 -10z"/>
<path d="M6405 2370 c3 -5 17 -10 31 -10 14 0 22 4 19 10 -3 6 -17 10 -31 10
-14 0 -22 -4 -19 -10z"/>
<path d="M6242 2331 c-11 -7 -10 -10 3 -15 25 -9 65 -7 65 4 0 6 -6 10 -14 10
-8 0 -20 2 -28 5 -7 3 -19 1 -26 -4z"/>
<path d="M6026 2305 c-9 -23 -8 -25 9 -25 17 0 19 9 6 28 -7 11 -10 10 -15 -3z"/>
<path d="M6113 2279 c24 -6 45 -5 55 1 12 7 2 9 -38 9 -55 -1 -55 -1 -17 -10z"/>
<path d="M5791 2239 c-13 -5 -21 -12 -18 -15 8 -9 107 6 107 16 0 11 -59 10
-89 -1z"/>
<path d="M5725 2233 c-44 -9 -48 -12 -35 -29 9 -10 16 -12 24 -4 5 5 18 10 28
10 10 0 18 4 18 9 0 14 -12 18 -35 14z"/>
<path d="M5340 2190 c-9 -6 -8 -11 6 -18 13 -7 41 -6 89 3 46 8 60 14 40 15
-85 7 -124 7 -135 0z"/>
<path d="M4993 2113 c9 -2 25 -2 35 0 9 3 1 5 -18 5 -19 0 -27 -2 -17 -5z"/>
<path d="M1645 2070 c-27 -4 337 -7 810 -8 541 -1 866 2 875 8 17 11 -1604 11
-1685 0z"/>
<path d="M1240 2030 c-29 -6 -23 -8 33 -9 43 -1 66 3 62 9 -7 11 -42 11 -95 0z"/>
<path d="M1435 2030 c-3 -5 1 -10 9 -10 8 0 18 5 21 10 3 6 -1 10 -9 10 -8 0
-18 -4 -21 -10z"/>
<path d="M1373 2023 c9 -2 23 -2 30 0 6 3 -1 5 -18 5 -16 0 -22 -2 -12 -5z"/>
<path d="M1008 1983 c12 -2 30 -2 40 0 9 3 -1 5 -23 4 -22 0 -30 -2 -17 -4z"/>
<path d="M767 1933 c-15 -14 -6 -24 20 -21 34 4 43 28 11 28 -14 0 -28 -3 -31
-7z"/>
<path d="M665 1900 c-33 -8 -25 -13 15 -10 14 1 29 6 35 11 11 11 -6 10 -50
-1z"/>
<path d="M455 1845 c-27 -22 -28 -24 -9 -25 21 0 114 37 114 45 0 3 -17 5 -37
5 -25 0 -48 -8 -68 -25z"/>
<path d="M0 1670 c0 -5 10 -10 23 -10 18 0 19 2 7 10 -19 13 -30 13 -30 0z"/>
<path d="M55 1650 c3 -5 13 -10 21 -10 8 0 14 5 14 10 0 6 -9 10 -21 10 -11 0
-17 -4 -14 -10z"/>
</g>
</svg>
